<?xml version="1.0" standalone="no"?><!DOCTYPE svg PUBLIC "-//W3C//DTD SVG 1.1//EN" "http://www.w3.org/Graphics/SVG/1.1/DTD/svg11.dtd"><svg t="1660372442587" class="icon" viewBox="0 0 1024 1024" version="1.1" xmlns="http://www.w3.org/2000/svg" p-id="953" xmlns:xlink="http://www.w3.org/1999/xlink" width="200" height="200"><defs><style type="text/css">@font-face { font-family: feedback-iconfont; src: url("//at.alicdn.com/t/font_1031158_u69w8yhxdu.woff2?t=1630033759944") format("woff2"), url("//at.alicdn.com/t/font_1031158_u69w8yhxdu.woff?t=1630033759944") format("woff"), url("//at.alicdn.com/t/font_1031158_u69w8yhxdu.ttf?t=1630033759944") format("truetype"); }
</style></defs><path d="M853.333333 138.666667H170.666667c-40.533333 0-74.666667 34.133333-74.666667 74.666666v512c0 40.533333 34.133333 74.666667 74.666667 74.666667h151.466666V917.333333c0 12.8 8.533333 25.6 19.2 29.866667 4.266667 2.133333 8.533333 2.133333 12.8 2.133333 8.533333 0 17.066667-4.266667 23.466667-10.666666l136.533333-138.666667H853.333333c40.533333 0 74.666667-34.133333 74.666667-74.666667V213.333333c0-40.533333-34.133333-74.666667-74.666667-74.666666z m10.666667 586.666666c0 6.4-4.266667 10.666667-10.666667 10.666667H501.333333c-8.533333 0-17.066667 4.266667-23.466666 10.666667l-89.6 93.866666V768c0-17.066667-14.933333-32-32-32H170.666667c-6.4 0-10.666667-4.266667-10.666667-10.666667V213.333333c0-6.4 4.266667-10.666667 10.666667-10.666666h682.666666c6.4 0 10.666667 4.266667 10.666667 10.666666v512z" p-id="954"></path><path d="M512 490.666667H298.666667c-17.066667 0-32 14.933333-32 32S281.6 554.666667 298.666667 554.666667h213.333333c17.066667 0 32-14.933333 32-32S529.066667 490.666667 512 490.666667zM672 341.333333H298.666667c-17.066667 0-32 14.933333-32 32S281.6 405.333333 298.666667 405.333333h373.333333c17.066667 0 32-14.933333 32-32s-14.933333-32-32-32z" p-id="955"></path></svg>