<?xml version="1.0" encoding="UTF-8"?>
<svg width="30px" height="30px" viewBox="0 0 30 30" version="1.1" xmlns="http://www.w3.org/2000/svg">
    <!-- Generator: Sketch 63 (92445) - https://sketch.com -->
    <title>编组</title>
    <desc>Created with Sketch.</desc>
    <g id="页面-1" stroke="none" stroke-width="1" fill="none" fill-rule="evenodd">
        <g id="活动详情--寻宝分享" transform="translate(-69.000000, -805.000000)">
            <g id="编组-2备份-2">
                <g id="编组-13" transform="translate(20.000000, 787.000000)">
                    <g id="朋友圈" transform="translate(49.000000, 18.000000)">
                        <g fill-rule="nonzero" id="路径">
                            <path d="M19.7556148,1.52031189 C19.7556148,1.52031189 17.8606907,0.753183114 14.9984937,0.753183114 C12.1364324,0.753183114 10.2415083,1.63188377 10.2415083,1.63188377 L19.7584982,11.3150951 L19.7556148,1.52031189 L19.7556148,1.52031189 Z" fill="#FB5453"></path>
                            <path d="M25.1497709,5.01981534 C23.0490037,3.02763477 21.0179816,2.31790327 21.0179816,2.31790327 L20.9481007,15.6180586 L28.0858177,8.85617157 C28.0858177,8.85905501 27.2535234,7.01199591 25.1498048,5.01984926 L25.1497709,5.01981534 Z" fill="#6468F1"></path>
                            <path d="M28.382472,10.141538 L18.5688617,19.5298929 L28.4969274,19.5298929 C28.4969274,19.5298929 29.2754542,17.6601055 29.2754542,14.8343416 C29.2725029,12.011461 28.382472,10.141538 28.382472,10.141538 L28.382472,10.141538 Z" fill="#5283F0"></path>
                            <path d="M21.2628359,27.7446907 C21.2628359,27.7446907 23.1900883,26.9698275 25.2668383,25.0104502 C27.34369,23.0511747 28.0858177,21.1606267 28.0858177,21.1606267 L14.2069405,21.094613 L21.2628359,27.7446907 L21.2628359,27.7446907 Z" fill="#00B2FE"></path>
                            <path d="M10.244256,28.5424178 C10.244256,28.5424178 12.1393158,29.3094108 15.0013771,29.3094108 C17.8663219,29.3094108 19.7584982,28.4307441 19.7584982,28.4307441 L10.2415422,18.7474989 L10.244256,28.5424178 Z" fill="#66D020"></path>
                            <path d="M5.2466906,25.0427447 C7.34766139,27.0350949 9.37868349,27.7446907 9.37868349,27.7446907 L9.44846256,14.4445354 L2.31074558,21.2063545 C2.31359509,21.2036407 3.14588943,23.0505641 5.2466906,25.0427447 Z" fill="#9AD122"></path>
                            <path d="M1.50331659,10.141538 C1.50331659,10.141538 0.724586247,12.0109183 0.724586247,14.8356985 C0.724586247,17.6606483 1.61485455,19.5298929 1.61485455,19.5298929 L11.4311448,10.1444214 L1.50331659,10.1444214 L1.50331659,10.141538 L1.50331659,10.141538 Z" fill="#FFC71A"></path>
                            <path d="M9.13376133,2.31790327 C9.13376133,2.31790327 7.20647496,3.09280035 5.12972501,5.05207586 C3.05290721,7.0113853 2.31074558,8.90210296 2.31074558,8.90210296 L16.1896227,8.96798091 L9.13376133,2.31790327 Z" fill="#FF7612"></path>
                        </g>
                        <rect id="矩形" x="0" y="0" width="30" height="30"></rect>
                    </g>
                </g>
            </g>
        </g>
    </g>
</svg>