<svg width="30" height="30" xmlns="http://www.w3.org/2000/svg"><g fill="none" fill-rule="evenodd"><g fill-rule="nonzero"><path fill="#FFF" d="M6.25 6.328h17.578v17.344H6.25z"/><path d="M19.626 13.137v-.1.1zm-6.534 6.445l.1.1h-.1.1l-.1-.1z" fill="#50B674"/><path d="M15 0C6.71 0 0 6.71 0 15s6.71 15 15 15 15-6.71 15-15S23.291 0 15 0z" fill="#2CC167"/><path d="M20.508 21.504H9.492a.703.703 0 100 1.406h11.016a.703.703 0 100-1.406zm-6.006-2.199a.698.698 0 00.23.154l.01.003c.08.03.167.05.257.05s.177-.02.256-.05l.011-.003a.703.703 0 00.23-.153l4.516-4.516a.703.703 0 10-.994-.995l-3.315 3.316V7.793a.703.703 0 10-1.407 0v9.318l-3.316-3.316a.703.703 0 10-.994.995l4.516 4.515z" fill="#FFF"/></g><path d="M0 0h30v30H0z"/></g></svg>