<?xml version="1.0" encoding="UTF-8"?>
<svg width="30px" height="30px" viewBox="0 0 30 30" version="1.1" xmlns="http://www.w3.org/2000/svg">
    <!-- Generator: Sketch 63 (92445) - https://sketch.com -->
    <title>编组 4</title>
    <desc>Created with Sketch.</desc>
    <g id="页面-1" stroke="none" stroke-width="1" fill="none" fill-rule="evenodd">
        <g id="活动详情--寻宝分享" transform="translate(-148.000000, -805.000000)">
            <g id="编组-2备份-2">
                <g id="编组-13" transform="translate(20.000000, 787.000000)">
                    <g id="微信" transform="translate(128.000000, 18.000000)">
                        <g fill-rule="nonzero" id="形状">
                            <path d="M15.0275183,0.267858286 C6.88259813,0.267858286 0.267858286,6.83938379 0.267858286,15.0000183 C0.267858286,23.1606528 6.88259813,29.7321783 15.0275183,29.7321783 C23.1724385,29.7321783 29.7321783,23.1606528 29.7321783,15.0000183 C29.7321783,6.83938379 23.1724385,0.267858286 15.0275183,0.267858286 Z M12.542694,18.6241296 C11.7687645,18.6241296 11.1048352,18.4581473 10.3309057,18.2931471 L8.11911742,19.3990413 L8.78304677,17.4642176 C7.17920561,16.3573413 6.23929381,14.9204646 6.23929381,13.1506411 C6.23929381,10.1099233 9.11402929,7.73215269 12.5976941,7.73215269 C15.7493942,7.73215269 18.4581473,9.6119763 19.0110944,12.2107293 C18.790112,12.2107293 18.6241296,12.1557293 18.4031472,12.1557293 C15.3624294,12.1557293 12.9846588,14.4225176 12.9846588,17.187253 C12.9846588,17.6292178 13.0396589,18.0711826 13.2056412,18.5131474 C12.9846588,18.6241296 12.7636764,18.6241296 12.542694,18.6241296 L12.542694,18.6241296 Z M21.9418121,20.8928823 L22.4397591,22.4957413 L20.7259178,21.5008294 C20.0619885,21.6668118 19.4540413,21.8327941 18.7910941,21.8327941 C15.7493942,21.8327941 13.3716235,19.7869881 13.3716235,17.2432352 C13.3716235,14.6994822 15.7493942,12.5986762 18.790112,12.5986762 C21.6658296,12.5986762 24.2086004,14.6444822 24.2086004,17.2432352 C24.2086004,18.6251118 23.2686886,19.8969883 21.9418121,20.8928823 Z" fill="#4EC73D"></path>
                            <path d="M9.55697624,11.2708175 C9.55697624,11.7687645 9.94394097,12.1547471 10.4409058,12.1547471 L10.4409059,12.1547471 C10.9236266,12.1607446 11.3198081,11.774286 11.3258053,11.2915653 C11.3258738,11.2846495 11.3258951,11.2777329 11.3258169,11.2708169 L11.3258169,11.2708163 C11.3312716,10.7880894 10.9443675,10.3923407 10.4616406,10.3868867 C10.455056,10.3868178 10.4484708,10.3868178 10.4418862,10.3868867 L10.4418862,10.3868867 C9.95916545,10.3808892 9.5629839,10.7673478 9.55698669,11.2500685 C9.55690076,11.2569843 9.55689692,11.263901 9.55697517,11.2708169 L9.55697624,11.2708175 Z M16.4123414,15.9153765 C16.4123414,16.3023412 16.744306,16.6343059 17.1312708,16.6343059 L17.1312707,16.6343059 C17.5254634,16.6274853 17.8433804,16.3095692 17.8502002,15.9153765 L17.8502002,15.9153785 C17.8433807,15.5211858 17.5254665,15.2032689 17.1312738,15.1964461 C16.7443091,15.141446 16.4133266,15.4724285 16.4133266,15.9153755 L16.4123414,15.9153765 Z M14.0355529,11.2708175 C14.0355529,11.7687645 14.4225176,12.1547471 14.9194825,12.1547471 L14.9194825,12.1547471 C15.4022032,12.1607446 15.7983848,11.774286 15.804382,11.2915653 C15.8044505,11.2846495 15.8044718,11.2777329 15.8043935,11.2708169 L15.8043935,11.2708163 C15.8098482,10.7880894 15.4229441,10.3923407 14.9402173,10.3868867 C14.9336327,10.3868178 14.9270474,10.3868178 14.9204628,10.3868867 L14.9204628,10.3868867 C14.4377421,10.3808892 14.0415605,10.7673478 14.0355633,11.2500685 C14.0354774,11.2569843 14.0354736,11.263901 14.0355518,11.2708169 L14.0355529,11.2708175 Z M19.9510062,15.9153765 C19.9510062,16.3023412 20.2829709,16.6343059 20.6699356,16.6343059 L20.6699356,16.6343059 C21.0641283,16.6274853 21.3820452,16.3095692 21.388865,15.9153765 L21.388865,15.9153785 C21.3820455,15.5211858 21.0641314,15.2032689 20.6699387,15.1964461 C20.2829739,15.141446 19.9510062,15.4734107 19.9510062,15.9153755 L19.9510062,15.9153765 Z" fill="#46BB36"></path>
                        </g>
                        <rect id="矩形" x="0" y="0" width="30" height="30"></rect>
                    </g>
                </g>
            </g>
        </g>
    </g>
</svg>